<svg width="1751" height="1246" xmlns="http://www.w3.org/2000/svg" xmlns:xlink="http://www.w3.org/1999/xlink" xml:space="preserve" overflow="hidden"><g transform="translate(-1127 -770)"><g><path d="M1501.5 1713.5 2855.19 1713.5" stroke="#C8C8C8" stroke-width="6.875" stroke-linecap="square" stroke-linejoin="miter" stroke-miterlimit="8" stroke-dasharray="20.625 6.875" stroke-opacity="0.498039" fill="none" fill-rule="evenodd"/><path d="M1503.5 969.5 2857.19 969.5" stroke="#C8C8C8" stroke-width="6.875" stroke-linecap="square" stroke-linejoin="miter" stroke-miterlimit="8" stroke-dasharray="20.625 6.875" stroke-opacity="0.498039" fill="none" fill-rule="evenodd"/><path d="M0 0 0.000360892 961.354" stroke="#C8C8C8" stroke-width="6.875" stroke-linecap="square" stroke-linejoin="miter" stroke-miterlimit="8" stroke-dasharray="20.625 6.875" stroke-opacity="0.498039" fill="none" fill-rule="evenodd" transform="matrix(-1 0 0 1 1589.5 830.5)"/><path d="M0 0 0.000360892 961.354" stroke="#C8C8C8" stroke-width="6.875" stroke-linecap="square" stroke-linejoin="miter" stroke-miterlimit="8" stroke-dasharray="20.625 6.875" stroke-opacity="1" fill="none" fill-rule="evenodd" transform="matrix(-1 0 0 1 2673.5 833.5)"/><path d="M1503 1786.84 2819.91 1786.84C2822.76 1786.84 2825.07 1789.15 2825.07 1792 2825.07 1794.85 2822.76 1797.16 2819.91 1797.16L1503 1797.16C1500.15 1797.16 1497.84 1794.85 1497.84 1792 1497.84 1789.15 1500.15 1786.84 1503 1786.84ZM2814.75 1776.53 2845.69 1792 2814.75 1807.47Z" fill="#000000" fill-rule="nonzero" fill-opacity="1"/><path d="M1497.84 1785.73 1497.84 826.781C1497.84 823.933 1500.15 821.625 1503 821.625 1505.85 821.625 1508.16 823.933 1508.16 826.781L1508.16 1785.73C1508.16 1788.58 1505.85 1790.89 1503 1790.89 1500.15 1790.89 1497.84 1788.58 1497.84 1785.73ZM1487.53 831.937 1503 801 1518.47 831.937Z" fill="#000000" fill-rule="nonzero" fill-opacity="1"/><text fill="#000000" fill-opacity="1" font-family="Comic Sans MS,Comic Sans MS_MSFontService,sans-serif" font-style="normal" font-variant="normal" font-weight="400" font-stretch="normal" font-size="55" text-anchor="start" direction="ltr" writing-mode="lr-tb" unicode-bidi="normal" text-decoration="none" transform="matrix(1 0 0 1 1646.89 1734)">ChartQA</text><text fill="#000000" fill-opacity="1" font-family="Comic Sans MS,Comic Sans MS_MSFontService,sans-serif" font-style="normal" font-variant="normal" font-weight="400" font-stretch="normal" font-size="55" text-anchor="start" direction="ltr" writing-mode="lr-tb" unicode-bidi="normal" text-decoration="none" transform="matrix(1 0 0 1 1909.32 1239)">MMLongBench</text><text fill="#000000" fill-opacity="1" font-family="Comic Sans MS,Comic Sans MS_MSFontService,sans-serif" font-style="normal" font-variant="normal" font-weight="400" font-stretch="normal" font-size="55" text-anchor="start" direction="ltr" writing-mode="lr-tb" unicode-bidi="normal" text-decoration="none" transform="matrix(1 0 0 1 1648.09 1639)">DocVQA</text><path d="M1550.5 1711.5C1550.5 1689.96 1567.96 1672.5 1589.5 1672.5 1611.04 1672.5 1628.5 1689.96 1628.5 1711.5 1628.5 1733.04 1611.04 1750.5 1589.5 1750.5 1567.96 1750.5 1550.5 1733.04 1550.5 1711.5Z" stroke="#FFFFFF" stroke-width="4.58333" stroke-linecap="butt" stroke-linejoin="miter" stroke-miterlimit="8" stroke-opacity="1" fill="#8FAADC" fill-rule="evenodd" fill-opacity="0.6"/><text fill="#000000" fill-opacity="1" font-family="Comic Sans MS,Comic Sans MS_MSFontService,sans-serif" font-style="normal" font-variant="normal" font-weight="700" font-stretch="normal" font-size="64" text-anchor="start" direction="ltr" writing-mode="lr-tb" unicode-bidi="normal" text-decoration="none" transform="matrix(1 0 0 1 1926.95 1959)">Avg. Pages</text><text fill="#000000" fill-opacity="1" font-family="Comic Sans MS,Comic Sans MS_MSFontService,sans-serif" font-style="normal" font-variant="normal" font-weight="700" font-stretch="normal" font-size="64" text-anchor="start" direction="ltr" writing-mode="lr-tb" unicode-bidi="normal" text-decoration="none" transform="matrix(-1.83697e-16 -1 1 -1.83697e-16 1211.94 1611)">Avg. Text</text><text fill="#000000" fill-opacity="1" font-family="Comic Sans MS,Comic Sans MS_MSFontService,sans-serif" font-style="normal" font-variant="normal" font-weight="700" font-stretch="normal" font-size="64" text-anchor="start" direction="ltr" writing-mode="lr-tb" unicode-bidi="normal" text-decoration="none" transform="matrix(-1.83697e-16 -1 1 -1.83697e-16 1211.94 1288)">Token</text><text fill="#000000" fill-opacity="1" font-family="Comic Sans MS,Comic Sans MS_MSFontService,sans-serif" font-style="normal" font-variant="normal" font-weight="700" font-stretch="normal" font-size="64" text-anchor="start" direction="ltr" writing-mode="lr-tb" unicode-bidi="normal" text-decoration="none" transform="matrix(-1.83697e-16 -1 1 -1.83697e-16 1211.94 1100)">s</text><text fill="#000000" fill-opacity="1" font-family="Comic Sans MS,Comic Sans MS_MSFontService,sans-serif" font-style="normal" font-variant="normal" font-weight="400" font-stretch="normal" font-size="64" text-anchor="start" direction="ltr" writing-mode="lr-tb" unicode-bidi="normal" text-decoration="none" transform="matrix(1 0 0 1 1291.92 1516)">1831.5</text><text fill="#000000" fill-opacity="1" font-family="Comic Sans MS,Comic Sans MS_MSFontService,sans-serif" font-style="normal" font-variant="normal" font-weight="400" font-stretch="normal" font-size="64" text-anchor="start" direction="ltr" writing-mode="lr-tb" unicode-bidi="normal" text-decoration="none" transform="matrix(1 0 0 1 1330.65 1733)">151.</text><text fill="#000000" fill-opacity="1" font-family="Comic Sans MS,Comic Sans MS_MSFontService,sans-serif" font-style="normal" font-variant="normal" font-weight="400" font-stretch="normal" font-size="64" text-anchor="start" direction="ltr" writing-mode="lr-tb" unicode-bidi="normal" text-decoration="none" transform="matrix(1 0 0 1 1442.94 1733)">5</text><text fill="#000000" fill-opacity="1" font-family="Comic Sans MS,Comic Sans MS_MSFontService,sans-serif" font-style="normal" font-variant="normal" font-weight="400" font-stretch="normal" font-size="64" text-anchor="start" direction="ltr" writing-mode="lr-tb" unicode-bidi="normal" text-decoration="none" transform="matrix(1 0 0 1 1556.26 1872)">1.0</text><text fill="#000000" fill-opacity="1" font-family="Comic Sans MS,Comic Sans MS_MSFontService,sans-serif" font-style="normal" font-variant="normal" font-weight="400" font-stretch="normal" font-size="64" text-anchor="start" direction="ltr" writing-mode="lr-tb" unicode-bidi="normal" text-decoration="none" transform="matrix(1 0 0 1 2030.96 1872)">47.</text><text fill="#000000" fill-opacity="1" font-family="Comic Sans MS,Comic Sans MS_MSFontService,sans-serif" font-style="normal" font-variant="normal" font-weight="400" font-stretch="normal" font-size="64" text-anchor="start" direction="ltr" writing-mode="lr-tb" unicode-bidi="normal" text-decoration="none" transform="matrix(1 0 0 1 2124.92 1872)">5</text><path d="M1507.5 1494.5 2861.19 1494.5" stroke="#C8C8C8" stroke-width="6.875" stroke-linecap="square" stroke-linejoin="miter" stroke-miterlimit="8" stroke-dasharray="20.625 6.875" stroke-opacity="0.498039" fill="none" fill-rule="evenodd"/><path d="M0 0 0.000360892 961.354" stroke="#C8C8C8" stroke-width="6.875" stroke-linecap="square" stroke-linejoin="miter" stroke-miterlimit="8" stroke-dasharray="20.625 6.875" stroke-opacity="0.498039" fill="none" fill-rule="evenodd" transform="matrix(-1 0 0 1 1724.5 830.5)"/><path d="M1507.5 1135.5 2861.19 1135.5" stroke="#C8C8C8" stroke-width="6.875" stroke-linecap="square" stroke-linejoin="miter" stroke-miterlimit="8" stroke-dasharray="20.625 6.875" stroke-opacity="0.498039" fill="none" fill-rule="evenodd"/><path d="M0 0 0.000360892 961.354" stroke="#C8C8C8" stroke-width="6.875" stroke-linecap="square" stroke-linejoin="miter" stroke-miterlimit="8" stroke-dasharray="20.625 6.875" stroke-opacity="0.498039" fill="none" fill-rule="evenodd" transform="matrix(-1 0 0 1 1801.5 833.5)"/><path d="M0 0 0.000360892 961.354" stroke="#C8C8C8" stroke-width="6.875" stroke-linecap="square" stroke-linejoin="miter" stroke-miterlimit="8" stroke-dasharray="20.625 6.875" stroke-opacity="0.498039" fill="none" fill-rule="evenodd" transform="matrix(-1 0 0 1 2063.5 830.5)"/><text fill="#000000" fill-opacity="1" font-family="Comic Sans MS,Comic Sans MS_MSFontService,sans-serif" font-style="normal" font-variant="normal" font-weight="400" font-stretch="normal" font-size="64" text-anchor="start" direction="ltr" writing-mode="lr-tb" unicode-bidi="normal" text-decoration="none" transform="matrix(1 0 0 1 1232.27 1157)">20970.9</text><text fill="#000000" fill-opacity="1" font-family="Comic Sans MS,Comic Sans MS_MSFontService,sans-serif" font-style="normal" font-variant="normal" font-weight="400" font-stretch="normal" font-size="64" text-anchor="start" direction="ltr" writing-mode="lr-tb" unicode-bidi="normal" text-decoration="none" transform="matrix(1 0 0 1 1232.27 992)">43622.6</text><text fill="#000000" fill-opacity="1" font-family="Comic Sans MS,Comic Sans MS_MSFontService,sans-serif" font-style="normal" font-variant="normal" font-weight="400" font-stretch="normal" font-size="64" text-anchor="start" direction="ltr" writing-mode="lr-tb" unicode-bidi="normal" text-decoration="none" transform="matrix(1 0 0 1 1767.88 1872)">8.0</text><text fill="#000000" fill-opacity="1" font-family="Comic Sans MS,Comic Sans MS_MSFontService,sans-serif" font-style="normal" font-variant="normal" font-weight="400" font-stretch="normal" font-size="64" text-anchor="start" direction="ltr" writing-mode="lr-tb" unicode-bidi="normal" text-decoration="none" transform="matrix(1 0 0 1 2606.7 1872)">85.6</text><path d="M1548.5 1652.5C1548.5 1630.96 1569.32 1613.5 1595 1613.5 1620.68 1613.5 1641.5 1630.96 1641.5 1652.5 1641.5 1674.04 1620.68 1691.5 1595 1691.5 1569.32 1691.5 1548.5 1674.04 1548.5 1652.5Z" stroke="#FFFFFF" stroke-width="4.58333" stroke-linecap="butt" stroke-linejoin="miter" stroke-miterlimit="8" stroke-opacity="1" fill="#FF2C9C" fill-rule="evenodd" fill-opacity="0.501961"/><path d="M1764 1515 1809.5 1424 1855 1515Z" fill="#70AD47" fill-rule="evenodd" fill-opacity="1"/><path d="M1670 1537 1715.5 1446 1761 1537Z" fill="#FFC000" fill-rule="evenodd" fill-opacity="1"/><path d="M2011 1171 2056.5 1080 2102 1171Z" fill="#C55A11" fill-rule="evenodd" fill-opacity="1"/><path d="M2566 933.449 2645.45 933.449 2670 854 2694.55 933.449 2774 933.449 2709.72 982.55 2734.28 1062 2670 1012.9 2605.72 1062 2630.28 982.55Z" fill="#FB0001" fill-rule="evenodd" fill-opacity="0.733333"/><text fill="#000000" fill-opacity="1" font-family="Comic Sans MS,Comic Sans MS_MSFontService,sans-serif" font-style="normal" font-variant="normal" font-weight="700" font-stretch="normal" font-size="55" text-anchor="start" direction="ltr" writing-mode="lr-tb" unicode-bidi="normal" text-decoration="none" transform="matrix(1 0 0 1 2474.72 1141)">LongDocURL</text><text fill="#000000" fill-opacity="1" font-family="Comic Sans MS,Comic Sans MS_MSFontService,sans-serif" font-style="normal" font-variant="normal" font-weight="700" font-stretch="normal" font-size="55" text-anchor="start" direction="ltr" writing-mode="lr-tb" unicode-bidi="normal" text-decoration="none" transform="matrix(1 0 0 1 2553.21 1207)">(Ours)</text><text fill="#000000" fill-opacity="1" font-family="Comic Sans MS,Comic Sans MS_MSFontService,sans-serif" font-style="normal" font-variant="normal" font-weight="400" font-stretch="normal" font-size="55" text-anchor="start" direction="ltr" writing-mode="lr-tb" unicode-bidi="normal" text-decoration="none" transform="matrix(1 0 0 1 1612.3 1418)">DUDE</text><text fill="#000000" fill-opacity="1" font-family="Comic Sans MS,Comic Sans MS_MSFontService,sans-serif" font-style="normal" font-variant="normal" font-weight="400" font-stretch="normal" font-size="55" text-anchor="start" direction="ltr" writing-mode="lr-tb" unicode-bidi="normal" text-decoration="none" transform="matrix(1 0 0 1 1869.53 1468)">MP</text><text fill="#000000" fill-opacity="1" font-family="Comic Sans MS,Comic Sans MS_MSFontService,sans-serif" font-style="normal" font-variant="normal" font-weight="400" font-stretch="normal" font-size="55" text-anchor="start" direction="ltr" writing-mode="lr-tb" unicode-bidi="normal" text-decoration="none" transform="matrix(1 0 0 1 1946.88 1468)">-</text><text fill="#000000" fill-opacity="1" font-family="Comic Sans MS,Comic Sans MS_MSFontService,sans-serif" font-style="normal" font-variant="normal" font-weight="400" font-stretch="normal" font-size="55" text-anchor="start" direction="ltr" writing-mode="lr-tb" unicode-bidi="normal" text-decoration="none" transform="matrix(1 0 0 1 1969.79 1468)">DocVQA</text></g></g></svg>