<svg width="1283" height="1275" xmlns="http://www.w3.org/2000/svg" xmlns:xlink="http://www.w3.org/1999/xlink" version="1.1" baseProfile="full" viewBox="0 0 1283 1275">
<rect width="1283" height="1275" x="0" y="0" fill="none"></rect>
<path d="M418.375 637.5A223.125 223.125 0 1 1 848.5733 720.5988L641.5 637.5Z" fill="#a7b9d6" stroke="white" stroke-width="4" stroke-linejoin="bevel" class="zr0-cls-45"></path>
<path d="M354.625 637.5A286.875 286.875 0 0 1 634.4426 350.7118L636.0109 414.4425A223.125 223.125 0 0 0 418.375 637.5Z" fill="#77c0cb" stroke="white" stroke-width="2" stroke-linejoin="bevel" class="zr0-cls-46"></path>
<path d="M4 637.5A637.5 637.5 0 0 1 103.5624 295.4044L399.4281 483.557A286.875 286.875 0 0 0 354.625 637.5Z" fill="#b9db7d" stroke="white" stroke-linejoin="bevel" class="zr0-cls-47"></path>
<path d="M103.5624 295.4044A637.5 637.5 0 0 1 181.8139 195.8044L434.6413 438.737A286.875 286.875 0 0 0 399.4281 483.557Z" fill="#eaa6d3" stroke="white" stroke-linejoin="bevel" class="zr0-cls-48"></path>
<path d="M181.8139 195.8044A637.5 637.5 0 0 1 281.657 111.2688L479.5706 400.696A286.875 286.875 0 0 0 434.6413 438.737Z" fill="#a9bad8" stroke="white" stroke-linejoin="bevel" class="zr0-cls-49"></path>
<path d="M281.657 111.2688A637.5 637.5 0 0 1 625.8169 0.1929L634.4426 350.7118A286.875 286.875 0 0 0 479.5706 400.696Z" fill="#fca88b" stroke="white" stroke-linejoin="bevel" class="zr0-cls-50"></path>
<path d="M634.4426 350.7118A286.875 286.875 0 0 1 907.7371 744.3413L848.5733 720.5988A223.125 223.125 0 0 0 636.0109 414.4425Z" fill="#e9d4b0" stroke="white" stroke-width="2" stroke-linejoin="bevel" class="zr0-cls-51"></path>
<path d="M625.8169 0.1929A637.5 637.5 0 0 1 1157.9031 263.6898L873.8814 469.2854A286.875 286.875 0 0 0 634.4426 350.7118Z" fill="#fde465" stroke="white" stroke-linejoin="bevel" class="zr0-cls-52"></path>
<path d="M1157.9031 263.6898A637.5 637.5 0 0 1 1259.1171 479.5274L919.4277 566.4123A286.875 286.875 0 0 0 873.8814 469.2854Z" fill="#ebd4b0" stroke="white" stroke-linejoin="bevel" class="zr0-cls-51"></path>
<path d="M1259.1171 479.5274A637.5 637.5 0 0 1 1273.6104 720.2209L925.9497 674.7244A286.875 286.875 0 0 0 919.4277 566.4123Z" fill="#c6c7c8" stroke="white" stroke-linejoin="bevel" class="zr0-cls-53"></path>
<path d="M1273.6104 720.2209A637.5 637.5 0 0 1 1233.1381 874.925L907.7371 744.3413A286.875 286.875 0 0 0 925.9497 674.7244Z" fill="#8fd1ba" stroke="white" stroke-linejoin="bevel" class="zr0-cls-54"></path>
<path d="M848.5733 720.5988A223.125 223.125 0 0 1 630.1596 860.3366L641.5 637.5Z" fill="#75bec9" stroke="white" stroke-width="4" stroke-linejoin="bevel" class="zr0-cls-55"></path>
<path d="M907.7371 744.3413A286.875 286.875 0 0 1 809.3332 870.157L772.0369 818.4555A223.125 223.125 0 0 0 848.5733 720.5988Z" fill="#e9a6d3" stroke="white" stroke-width="2" stroke-linejoin="bevel" class="zr0-cls-48"></path>
<path d="M1233.1381 874.925A637.5 637.5 0 0 1 1182.7782 974.2851L885.0752 789.0533A286.875 286.875 0 0 0 907.7371 744.3413Z" fill="#fde167" stroke="white" stroke-linejoin="bevel" class="zr0-cls-56"></path>
<path d="M1182.7782 974.2851A637.5 637.5 0 0 1 1164.3639 1002.2185L876.7887 801.6233A286.875 286.875 0 0 0 885.0752 789.0533Z" fill="#eaa6d3" stroke="white" stroke-linejoin="bevel" class="zr0-cls-48"></path>
<path d="M1164.3639 1002.2185A637.5 637.5 0 0 1 1115.8918 1063.3623L854.9763 829.138A286.875 286.875 0 0 0 876.7887 801.6233Z" fill="#a9bad8" stroke="white" stroke-linejoin="bevel" class="zr0-cls-49"></path>
<path d="M1115.8918 1063.3623A637.5 637.5 0 0 1 1014.4627 1154.5156L809.3332 870.157A286.875 286.875 0 0 0 854.9763 829.138Z" fill="#9db2b7" stroke="white" stroke-linejoin="bevel" class="zr0-cls-57"></path>
<path d="M809.3332 870.157A286.875 286.875 0 0 1 626.9195 924.0042L630.1596 860.3366A223.125 223.125 0 0 0 772.0369 818.4555Z" fill="#f7a88b" stroke="white" stroke-width="2" stroke-linejoin="bevel" class="zr0-cls-50"></path>
<path d="M1014.4627 1154.5156A637.5 637.5 0 0 1 874.065 1231.0653L746.1542 904.6044A286.875 286.875 0 0 0 809.3332 870.157Z" fill="#76c0cb" stroke="white" stroke-linejoin="bevel" class="zr0-cls-58"></path>
<path d="M874.065 1231.0653A637.5 637.5 0 0 1 821.3173 1249.1142L722.4178 912.7264A286.875 286.875 0 0 0 746.1542 904.6044Z" fill="#b9db7d" stroke="white" stroke-linejoin="bevel" class="zr0-cls-47"></path>
<path d="M821.3173 1249.1142A637.5 637.5 0 0 1 705.1782 1271.8117L670.1552 922.9403A286.875 286.875 0 0 0 722.4178 912.7264Z" fill="#fca88b" stroke="white" stroke-linejoin="bevel" class="zr0-cls-50"></path>
<path d="M705.1782 1271.8117A637.5 637.5 0 0 1 609.0989 1274.1761L626.9195 924.0042A286.875 286.875 0 0 0 670.1552 922.9403Z" fill="#ebd4b0" stroke="white" stroke-linejoin="bevel" class="zr0-cls-51"></path>
<path d="M626.9195 924.0042A286.875 286.875 0 0 1 354.625 637.5L418.375 637.5A223.125 223.125 0 0 0 630.1596 860.3366Z" fill="#fbe367" stroke="white" stroke-width="2" stroke-linejoin="bevel" class="zr0-cls-59"></path>
<path d="M630.1596 860.3366A223.125 223.125 0 0 1 418.375 637.5L641.5 637.5Z" fill="#f7a88b" stroke="white" stroke-width="4" stroke-linejoin="bevel" class="zr0-cls-50"></path>
<path d="M609.0989 1274.1761A637.5 637.5 0 0 1 341.2344 1199.8583L506.3805 890.5612A286.875 286.875 0 0 0 626.9195 924.0042Z" fill="#a9bad8" stroke="white" stroke-linejoin="bevel" class="zr0-cls-49"></path>
<path d="M341.2344 1199.8582A637.5 637.5 0 0 1 199.5532 1096.9445L442.6239 844.25A286.875 286.875 0 0 0 506.3805 890.5612Z" fill="rgb(252,227,103)" stroke="white" stroke-linejoin="bevel" class="zr0-cls-59"></path>
<path d="M199.5532 1096.9445A637.5 637.5 0 0 1 83.6354 946.0342L390.4609 776.3404A286.875 286.875 0 0 0 442.6239 844.25Z" fill="rgb(234,212,176)" stroke="white" stroke-linejoin="bevel" class="zr0-cls-51"></path>
<path d="M83.6354 946.0342A637.5 637.5 0 0 1 4 637.5L354.625 637.5A286.875 286.875 0 0 0 390.4609 776.3404Z" fill="#c6c7c8" stroke="white" stroke-linejoin="bevel" class="zr0-cls-53"></path>
<text dominant-baseline="central" text-anchor="middle" style="font-size:32px;font-family:Comic Sans MS;font-weight:bolder;" transform="matrix(0.982,0.19,-0.19,0.982,662.6587,527.9623)" fill="#000000">Understanding</text>
<text dominant-baseline="central" text-anchor="middle" style="font-size:28px;font-family:Comic Sans MS;font-weight:bolder;" transform="matrix(0.698,-0.716,0.716,0.698,458.9833,459.4195)" fill="#000000">Single-Page</text>
<text dominant-baseline="central" text-anchor="start" style="font-size:28px;font-family:Comic Sans MS;font-weight:bolder;" xml:space="preserve" transform="matrix(0.96,0.279,-0.279,0.96,34.1973,460.7526)" fill="#000000">SP Text Understanding</text>
<text dominant-baseline="central" text-anchor="start" style="font-size:28px;font-family:Comic Sans MS;font-weight:bolder;" xml:space="preserve" transform="matrix(0.786,0.618,-0.618,0.786,144.1401,246.7451)" fill="#000000">SP Layout Understanding</text>
<text dominant-baseline="central" text-anchor="start" style="font-size:28px;font-family:Comic Sans MS;font-weight:bolder;" xml:space="preserve" transform="matrix(0.646,0.763,-0.763,0.646,232.7921,154.7846)" fill="#000000">SP Figure Understanding</text>
<text dominant-baseline="central" text-anchor="start" style="font-size:28px;font-family:Comic Sans MS;font-weight:bolder;" xml:space="preserve" transform="matrix(0.307,0.952,-0.952,0.307,447.2311,35.5732)" fill="#000000">SP Table Understanding</text>
<text dominant-baseline="central" text-anchor="middle" style="font-size:28px;font-family:Comic Sans MS;font-weight:bolder;" transform="matrix(0.57,0.821,-0.821,0.57,850.9641,492.0703)" fill="#000000">Multi-Page</text>
<text dominant-baseline="central" text-anchor="end" style="font-size:28px;font-family:Comic Sans MS;font-weight:bolder;" xml:space="preserve" transform="matrix(0.444,-0.896,0.896,0.444,922.1906,70.694)" fill="#000000">MP Text Understanding</text>
<text dominant-baseline="central" text-anchor="end" style="font-size:28px;font-family:Comic Sans MS;font-weight:bolder;" xml:space="preserve" transform="matrix(0.905,-0.425,0.425,0.905,1214.1619,368.9583)" fill="#000000">MP Layout Understanding</text>
<text dominant-baseline="central" text-anchor="end" style="font-size:28px;font-family:Comic Sans MS;font-weight:bolder;" xml:space="preserve" transform="matrix(0.998,-0.06,0.06,0.998,1272.8565,599.4832)" fill="#000000">MP Figure Understanding</text>
<text dominant-baseline="central" text-anchor="end" style="font-size:28px;font-family:Comic Sans MS;font-weight:bolder;" xml:space="preserve" transform="matrix(0.967,0.253,-0.253,0.967,1253.407,797.5815)" fill="#000000">MP Table Understanding</text>
<text dominant-baseline="central" text-anchor="middle" style="font-size:32px;font-family:Comic Sans MS;font-weight:bolder;" transform="matrix(0.842,-0.539,0.539,0.842,701.6239,731.4751)" fill="#000000">Reasoning</text>
<text dominant-baseline="central" text-anchor="middle" style="font-size:28px;font-family:Comic Sans MS;font-weight:bolder;" transform="matrix(0.616,-0.788,0.788,0.616,842.3607,794.5986)" fill="#000000">Single-Page</text>
<text dominant-baseline="central" text-anchor="end" style="font-size:28px;font-family:Comic Sans MS;font-weight:bolder;" xml:space="preserve" transform="matrix(0.892,0.452,-0.452,0.892,1205.6726,923.4467)" fill="#000000">SP Text Reasoning</text>
<text dominant-baseline="central" text-anchor="end" style="font-size:28px;font-family:Comic Sans MS;font-weight:bolder;" xml:space="preserve" transform="matrix(0.835,0.55,-0.55,0.835,1169.5798,985.6207)" fill="#000000">SP Layout Reasoning</text>
<text dominant-baseline="central" text-anchor="end" style="font-size:28px;font-family:Comic Sans MS;font-weight:bolder;" xml:space="preserve" transform="matrix(0.784,0.621,-0.621,0.784,1137.146,1030.4266)" fill="#000000">SP Figure Reasoning</text>
<text dominant-baseline="central" text-anchor="end" style="font-size:28px;font-family:Comic Sans MS;font-weight:bolder;" xml:space="preserve" transform="matrix(0.668,0.744,-0.744,0.668,1064.2795,1107.94)" fill="#000000">SP Table Reasoning</text>
<text dominant-baseline="central" text-anchor="middle" style="font-size:28px;font-family:Comic Sans MS;font-weight:bolder;" transform="matrix(0.959,-0.283,0.283,0.959,713.6944,882.0669)" fill="#000000">Multi-Page</text>
<text dominant-baseline="central" text-anchor="end" style="font-size:28px;font-family:Comic Sans MS;font-weight:bolder;" xml:space="preserve" transform="matrix(0.479,0.878,-0.878,0.479,944.28,1192.8202)" fill="#000000">MP Text Reasoning</text>
<text dominant-baseline="central" text-anchor="end" style="font-size:28px;font-family:Comic Sans MS;font-weight:bolder;" xml:space="preserve" transform="matrix(0.324,0.946,-0.946,0.324,846.2698,1235.9359)" fill="#000000">MP Layout Reasoning</text>
<text dominant-baseline="central" text-anchor="end" style="font-size:28px;font-family:Comic Sans MS;font-weight:bolder;" xml:space="preserve" transform="matrix(0.192,0.981,-0.981,0.192,762.8165,1258.2564)" fill="#000000">MP Figure Reasoning</text>
<text dominant-baseline="central" text-anchor="end" style="font-size:28px;font-family:Comic Sans MS;font-weight:bolder;" xml:space="preserve" transform="matrix(0.025,1,-1,0.025,657.0601,1269.8086)" fill="#000000">MP Table Reasoning</text>
<text dominant-baseline="central" text-anchor="middle" style="font-size:28px;font-family:Comic Sans MS;font-weight:bolder;" transform="matrix(0.689,0.725,-0.725,0.689,456.6623,813.1703)" fill="#000000">Cross-Element</text>
<text dominant-baseline="central" text-anchor="middle" style="font-size:32px;font-family:Comic Sans MS;font-weight:bolder;" transform="matrix(0.689,0.725,-0.725,0.689,560.6335,714.3557)" fill="#000000">Locating</text>
<text dominant-baseline="central" text-anchor="start" style="font-size:28px;font-family:Comic Sans MS;font-weight:bolder;" xml:space="preserve" transform="matrix(0.267,-0.964,0.964,0.267,472.4032,1246.9773)" fill="#000000">Cross-Title Locating</text>
<text dominant-baseline="central" text-anchor="start" style="font-size:28px;font-family:Comic Sans MS;font-weight:bolder;" xml:space="preserve" transform="matrix(0.588,-0.809,0.809,0.588,269.7818,1149.2439)" fill="#000000">Cross-Table Locating</text>
<text dominant-baseline="central" text-anchor="start" style="font-size:28px;font-family:Comic Sans MS;font-weight:bolder;" xml:space="preserve" transform="matrix(0.793,-0.609,0.609,0.793,139.8971,1022.793)" fill="#000000">Para-Title Locating</text>
<text dominant-baseline="central" text-anchor="start" style="font-size:28px;font-family:Comic Sans MS;font-weight:bolder;" xml:space="preserve" transform="matrix(0.968,-0.25,0.25,0.968,29.0712,795.5733)" fill="#000000">Figure-Table Locating</text>
<style ><![CDATA[
.zr0-cls-45:hover {
cursor:pointer;
fill:rgba(183,203,235,1);
}
.zr0-cls-46:hover {
cursor:pointer;
fill:rgba(130,211,223,1);
}
.zr0-cls-47:hover {
cursor:pointer;
fill:rgba(203,240,137,1);
}
.zr0-cls-48:hover {
cursor:pointer;
fill:rgba(255,182,232,1);
}
.zr0-cls-49:hover {
cursor:pointer;
fill:rgba(185,204,237,1);
}
.zr0-cls-50:hover {
cursor:pointer;
fill:rgba(255,184,152,1);
}
.zr0-cls-51:hover {
cursor:pointer;
fill:rgba(255,233,193,1);
}
.zr0-cls-52:hover {
cursor:pointer;
fill:rgba(255,250,111,1);
}
.zr0-cls-53:hover {
cursor:pointer;
fill:rgba(217,218,220,1);
}
.zr0-cls-54:hover {
cursor:pointer;
fill:rgba(157,229,204,1);
}
.zr0-cls-55:hover {
cursor:pointer;
fill:rgba(128,209,221,1);
}
.zr0-cls-56:hover {
cursor:pointer;
fill:rgba(255,247,113,1);
}
.zr0-cls-57:hover {
cursor:pointer;
fill:rgba(172,195,201,1);
}
.zr0-cls-58:hover {
cursor:pointer;
fill:rgba(129,211,223,1);
}
.zr0-cls-59:hover {
cursor:pointer;
fill:rgba(255,249,113,1);
}

]]>

</style>
</svg>